# xmcd
#
# Track frame offsets:
# 150
# 11430
# 29555
# 48332
# 69715
# 85910
# 106095
# 125765
# 140905
# 155685
# 168032
#
# Disc length: 2509 seconds
#
#
# Revision: 0
# Processed by: cddbd v1.5.2PL0 Copyright (c) Steve Scherf et al.
# Submitted via: FreeRIP 2.95 
#
DISCID=9309cb0b
DTITLE=Deportees - Damaged Goods
DYEAR=2006
DGENRE=
TTITLE0=People Like Us
TTITLE1=Damaged Goods
TTITLE2=Who Is Gonna Meet Me
TTITLE3=Do Your Own Crying
TTITLE4=Thank Me Later
TTITLE5=Come Give Me Love
TTITLE6=Line of Fire
TTITLE7=A Sky To Talk About
TTITLE8=Missing You, Missing Me
TTITLE9=Great Heights
TTITLE10=Youngest Man Alive
EXTD=
EXTT0=
EXTT1=
EXTT2=
EXTT3=
EXTT4=
EXTT5=
EXTT6=
EXTT7=
EXTT8=
EXTT9=
EXTT10=
PLAYORDER=
